<svg width="24" height="25" viewBox="0 0 24 25" fill="none" xmlns="http://www.w3.org/2000/svg">
<g clip-path="url(#clip0_10027_395)">
<path fill-rule="evenodd" clip-rule="evenodd" d="M0 0.5H5.05051L9.05051 19.7H18.8V21.3H7.74949L3.74949 2.1H0V0.5Z" fill="#292A2E"/>
<path fill-rule="evenodd" clip-rule="evenodd" d="M24 5.3H6.05051L6.38384 6.9H21.7094L18.8 16.5H6.8L7.11579 18.1H20L24 5.3Z" fill="#292A2E"/>
<path fill-rule="evenodd" clip-rule="evenodd" d="M8.4 22.9C8.84183 22.9 9.2 22.5418 9.2 22.1C9.2 21.6582 8.84183 21.3 8.4 21.3C7.95817 21.3 7.6 21.6582 7.6 22.1C7.6 22.5418 7.95817 22.9 8.4 22.9ZM6 22.1C6 23.4255 7.07452 24.5 8.4 24.5C9.72548 24.5 10.8 23.4255 10.8 22.1C10.8 20.7745 9.72548 19.7 8.4 19.7C7.07452 19.7 6 20.7745 6 22.1Z" fill="#292A2E"/>
<path fill-rule="evenodd" clip-rule="evenodd" d="M18.8 22.9C19.2418 22.9 19.6 22.5418 19.6 22.1C19.6 21.6582 19.2418 21.3 18.8 21.3C18.3582 21.3 18 21.6582 18 22.1C18 22.5418 18.3582 22.9 18.8 22.9ZM16.4 22.1C16.4 23.4255 17.4745 24.5 18.8 24.5C20.1255 24.5 21.2 23.4255 21.2 22.1C21.2 20.7745 20.1255 19.7 18.8 19.7C17.4745 19.7 16.4 20.7745 16.4 22.1Z" fill="#292A2E"/>
</g>
<defs>
<clipPath id="clip0_10027_395">
<rect width="24" height="24" fill="white" transform="translate(0 0.5)"/>
</clipPath>
</defs>
</svg>
