<svg width="230" height="41" viewBox="0 0 230 41" fill="none" xmlns="http://www.w3.org/2000/svg">
<path d="M31.4666 17.835V18.2332L31.7988 18.4531L35.1024 20.6391V28.487L19.5512 38.4979L4 28.487V13.5086L19.5508 3.49792L27.612 8.69653V13.1585V13.567L27.9577 13.7852L31.4666 15.9999V17.835Z" fill="#FAFAFA" stroke="#292A2E" stroke-width="1.51433"/>
<path d="M34.0092 21.4032V27.7289L19.5515 36.9855L5.09375 27.7289V21.4032L19.5515 12.1466L34.0092 21.4032Z" fill="#FAFAFA" stroke="#292A2E" stroke-width="1.51433"/>
<path d="M19.6602 36.8928V29.7563" stroke="#292A2E" stroke-width="1.51433"/>
<path d="M19.5511 29.8491L5.72656 20.9978L19.5511 12.1466L33.3756 20.9978L19.5511 29.8491Z" fill="#FAFAFA" stroke="#292A2E" stroke-width="1.51433"/>
<path d="M16.1518 22.8066L15.7516 22.5504L15.3514 22.8066L11.9517 24.9833L5.09375 20.5924V14.2667L19.5515 5.0101L26.4048 9.39801L26.3548 13.7989L26.3502 14.2064L26.6921 14.4286L30.1835 16.6974L30.2077 23.0263L23.3513 27.4161L16.1518 22.8066Z" fill="#FAFAFA" stroke="#292A2E" stroke-width="1.51433"/>
<path d="M22.9508 12.0526L29.5758 16.2942L23.351 20.2797L16.1514 15.6701L15.7512 15.4139L15.3511 15.6701L11.9514 17.8468L5.72656 13.8613L19.5511 5.0101L25.7759 8.99555L22.9508 10.8043L21.976 11.4285L22.9508 12.0526Z" fill="#FAFAFA" stroke="#292A2E" stroke-width="1.51433"/>
<path d="M11.8945 24.8905V17.754" stroke="#292A2E" stroke-width="1.51433"/>
<path d="M15.7227 22.728V15.5916" stroke="#292A2E" stroke-width="1.51433"/>
<path d="M23.3789 27.2692V20.1327" stroke="#292A2E" stroke-width="1.51433"/>
<path fill-rule="evenodd" clip-rule="evenodd" d="M44 11.7857L61.0261 11.7857L60.4231 16.2143H54.702V27.2142H50.0293V16.2143L44 16.2143L44 11.7857Z" fill="#292A2E"/>
<path fill-rule="evenodd" clip-rule="evenodd" d="M62.7095 19.5299C62.7095 15.0951 66.4844 11.5 71.141 11.5H72.9688C77.6254 11.5 81.4003 15.0951 81.4003 19.5299C81.4003 24.0476 77.6254 27.4999 72.9687 27.4999H71.141C66.4844 27.4999 62.7095 23.9646 62.7095 19.5299ZM70.94 16.0714C69.0583 16.0714 67.5329 17.7079 67.5329 19.4999C67.5329 21.292 69.0583 22.9285 70.94 22.9285H73.1698C75.0514 22.9285 76.5769 21.292 76.5769 19.4999C76.5769 17.7079 75.0515 16.0714 73.1698 16.0714H70.94Z" fill="#292A2E"/>
<path fill-rule="evenodd" clip-rule="evenodd" d="M82.9075 11.7859H94.4205C98.2625 11.7859 101.377 14.7393 101.377 18.3826C101.377 22.0259 98.2625 25.0715 94.4205 25.0715H87.585V29.5L82.9075 28.0714V11.7859ZM87.585 20.6429H94.5713C95.6264 20.6429 96.6325 19.5001 96.6325 18.3826C96.6325 17.2144 95.6264 16.2144 94.5713 16.2144H87.585V20.6429Z" fill="#292A2E"/>
<path fill-rule="evenodd" clip-rule="evenodd" d="M102.655 11.7857H119.537L118.937 16.2137H107.327V27.2142H102.655V11.7857Z" fill="#292A2E"/>
<path fill-rule="evenodd" clip-rule="evenodd" d="M121.196 11.7859H139.133V27.2143H134.46V16.2138L125.868 16.2138V27.2212H121.196V11.7859Z" fill="#292A2E"/>
<path fill-rule="evenodd" clip-rule="evenodd" d="M147.542 11.7547H152.941L160.505 27.2405H155.29L150.269 16.8115L145.482 27.2405H140.22L147.542 11.7547Z" fill="#292A2E"/>
<path fill-rule="evenodd" clip-rule="evenodd" d="M168.994 11.7547H174.392L181.957 27.2405H177.037L175.756 24.8858H167.809L166.592 27.2405H161.644L168.994 11.7547ZM169.622 20.8757H173.864L171.721 16.3022L169.622 20.8757Z" fill="#292A2E"/>
<path fill-rule="evenodd" clip-rule="evenodd" d="M181.334 18.6695C181.334 14.8283 184.618 11.7859 188.668 11.7859H197.314L196.711 16.2138H188.668C187.405 16.2138 186.079 17.471 186.079 18.6695V20.2855C186.079 21.4839 187.405 22.7858 188.668 22.7858H197.314L196.711 27.2143H188.668C184.618 27.2143 181.334 24.1266 181.334 20.2855V18.6695Z" fill="#292A2E"/>
<path d="M216 11.7859L215.397 16.2144H209.676V27.2143H205.003V16.2144L198.974 16.2144V11.7859L216 11.7859Z" fill="#292A2E"/>
</svg>
